<?xml version="1.0" encoding="UTF-8"?>
<svg id="Ebene_2" data-name="Ebene 2" xmlns="http://www.w3.org/2000/svg" viewBox="0 0 29.81 65.49">
  <defs>
    <style>
      .cls-1 {
        fill: #00f0c2;
      }
    </style>
  </defs>
  <g id="Ebene_2-2" data-name="Ebene 2">
    <g>
      <path class="cls-1" d="M6.83,60.32c0,.51.02,1.39.51,2.38.33.66.79,1.19,1.33,1.59.05-.18.14-.35.33-.51.03-.06-.08-.08-.2-.09.18-.08-.09-.37.25-.38-.4-.26.16-.55.41-.76-.33-.47.23-.84.86-1.01-.42-.11.06-.27.45-.25-.07-.04-.22-.05-.2-.13.18-.07.45.07.49.18-.46,0,.11.02.01.12-.17.07-.17-.03-.48-.02.08.04.11.09.11.16.31-.07.43.08,0,.04.16.03.17.13.3.17-.45.29.06.73-.58.95.08.1.33.43-.16.38.51.14-.38.35.14.52-.04.05-.12.07-.28.06.46.43-.25.71-.61,1.05.46.2.96.32,1.46.38-.01-.7.41-1.22.28-1.95.23.09.26,0,.41,0-.01.55-.22,1.35-.26,1.97.44.17,1.76.6,2.97,0,1.86-.92,2.01-3.53,1.83-4.86-.27-2.03-1.59-3.25-1.83-3.47-1.37-1.22-3.93-2.28-5.76-1.11-1.79,1.14-1.79,3.71-1.79,4.57Z"/>
      <path class="cls-1" d="M20.95,1.54c-.13.8-.24,1.59-.16,2.18-.05.34-.71.35-.96.59-.59-.05-.12-.77.19-.85-.17-.85.04-1.53.23-2.21-.29-.12-.59-.23-.89-.33-.61.45-1.27.9-.53,1.54-.57.03-.16-.3-.66-.3-.4-.04-.48.07-.61.16.03.08.29.07.48.09-.18.21-.64.29-.74.53-.38-.14.31-.52-.53-.61.57-.62.44-1.29.68-1.92C12.9-.54,7.35.1,1.28,3.01c-2.92,1.5-.35,7.49,2.8,5.93,6.77-3.2,17.26-2.07,17,6.82.07,9-16.09,20.69-13.02,30.57-.01,1.39,1.07,2.57,2.48,2.56,6.91.99,4.67-3.99,6.56-10.12-.08,0-.16,0-.27,0,.56-.17-.24-.39-1.07-.4-.12-.25.54-.15.59-.33-.68-.01-.89.07-.64-.21-.78-.12-.5.22-.8.31.13-.41,1.99-1.47,2.53-1.98.52.12-.27.27.04.54.3-.04.43-.15.39-.35.06.02.11.04.16.07.75-1.52,1.83-3.08,3.44-4.6,12.57-11.86,9.72-25.74-.51-30.3ZM18.28,4.78c-.75,0-.57-.24-1.12-.3.73-.23.25-.49.45-1.01,1.61.14-.05.96.67,1.3Z"/>
    </g>
  </g>
</svg>
