<?xml version="1.0" encoding="UTF-8"?>
<svg id="Ebene_2" data-name="Ebene 2" xmlns="http://www.w3.org/2000/svg" viewBox="0 0 192.78 176.97">
  <defs>
    <style>
      .cls-1 {
        fill: #00f0c2;
      }
    </style>
  </defs>
  <g id="Ebene_2-2" data-name="Ebene 2">
    <g>
      <path class="cls-1" d="M64.25,57.4c.11-7.33-11.41-7.33-11.3,0-.11,7.33,11.41,7.33,11.3,0Z"/>
      <path class="cls-1" d="M141.62,56.62c.11-7.33-11.41-7.33-11.3,0-.11,7.33,11.41,7.33,11.3,0Z"/>
      <path class="cls-1" d="M62.85,96.88c.27-.27.56-.44.87-.54-2.24-4.65-10.86-3.81-10.77,2.54-.11,7.33,11.41,7.33,11.3,0,0-.08,0-.16,0-.23-.52-.48-.99-1.12-1.39-1.76Z"/>
      <path class="cls-1" d="M107.29,102.01c-5.36.12-6.36-4.13-6.65-8.87-.9-.08-2.19-.26-3.03-.54.63-.84,1.64-.58,2.58-.44-.1-3.32.25-6.75.1-9.02,0-1.71-1.43-3.09-3.16-3-7.63,3.12,2.94,22.07-9.84,21.86-3.89-.06-3.89,6.06,0,6,1.98.22,7.08-1.02,7,2.33-.06,3.89,6.06,3.89,6,0-.09-3.35,5.03-2.12,7-2.33,3.89.06,3.89-6.06,0-6Z"/>
      <path class="cls-1" d="M127.62,172.76l-7.79-17.44c-1.58-3.53-1.39-7.53.16-11.07.97-2.26.85-4.9-.34-7.25-2.4-4.98-7.99-6.22-13.18-6.88-3.56-.51-6.18-3.59-6.18-7.18v-4.38c.06-3.89-6.06-3.89-6,0v4.38c0,3.59-2.62,6.68-6.18,7.18-1.79.25-3.57.58-5.33.99-5.96,1.21-10.62,7.43-8.19,13.13,4.64,7.6-5.29,21.55-7.63,28.51-1.52,3.64,3.76,6.03,5.48,2.45.92-1.34,2.03-4.19,3.33-7.5-.93-.08-1.83-.26-2.7-.55.74-.98,1.99-.46,3.06-.38.07-.18.14-.36.21-.54-.42-.06-.84-.23-1.25-.44.77-.83,1.17-.83,1.67-.63,2.78-6.96,6.29-14.72,10.45-14.92,6.58-1.53,13.54-1.53,20.12,0,0,0,.01,0,.02,0,6.7.25,11.86,20.74,14.77,24.97,1.72,3.58,7,1.19,5.48-2.45ZM114.47,141.89c-.85,1.98-3.32,3.05-5.77,2.5-7.47-1.74-15.37-1.74-22.82,0-3.04.85-7.11-1.7-5.6-4.68.67-1.32,2.11-2.34,3.85-2.75,8.61-2,17.7-2,26.31,0,2.32.57,4.78,2.44,4.03,4.93Z"/>
      <path class="cls-1" d="M139.72,96.54c.48-.96.72-1.56.79-1.91-.08-.1-.15-.19-.24-.28-.59.39-1.97,2.32-2.44,3.75-1.03-1.95,2.53-3.33,1.61-4.26.05-.03.09-.06.14-.09-3.27-2.43-9.35-.98-9.27,4.35-.11,7.33,11.41,7.33,11.3,0,.02-1.13-.25-2.09-.7-2.87-.37.8-.75,1.38-1.2,1.32Z"/>
      <path class="cls-1" d="M174.69,131.22c-.04-.81-3.01-6.73-6.02-13.15-1.13-.03-2.22-.24-3.26-.59.67-.9,1.79-.54,2.79-.41-.23-.49-.45-.98-.68-1.47-.04.02-.08.04-.13.05-.13-.1-.19-.49-.25-.87-.09-.2-.18-.39-.27-.59.27,1.72-1.62-.4-1.57,1.53-.19-1.81-.7-1.06-.93-3.75-.09.41-.43.37-.41.99-.38.03.1-1.14-.23-2.16.56.05,1.22.33,1.83.43-2.37-5.51-3.94-10.11-2.66-10.52,1.24-1.12,1.24-3.23,0-4.36-23.49-13.84-28.78-18.06-19.07-25.53-.08-.34-.16-.79-.21-1.45-.09.41-.43.37-.41.99-.38.03.1-1.14-.23-2.16,1.05.1,2.45.98,3.25.08.03.18.12.44.24.66.16-.11.32-.21.48-.32,0-.03,0-.05-.01-.09.03,0,.05.02.07.05.33-.21.66-.43,1-.65-.57-.35-1.06-.8-1.4-1.09.67-.74,1.4-.05,2.26.54,3.68-2.28,8.36-4.92,14.01-8.15,1.24-1.12,1.24-3.23,0-4.36-5.63-4.21-35.76-20.65-34.68-33.58.06-3.89-6.06-3.89-6,0-2.27,17.56-26.2,6.86-21.95-7.81.06-3.89-6.06-3.89-6,0,3.83,13.24-15.26,23.22-20.7,12.16-1.08.34-2.11.4-2.77-1.11.74-.89,2,1.32,1.44-.87.16.52.43.5.71.44-.28-.85-.49-1.78-.63-2.82.06-3.89-6.06-3.89-6,0,.54,6.45-6.68,13.77-14.76,20.02.49.45.96.81,1.31.5-.39,1.13-.4.25.07,1.77-1.36-1.49-2.87.23-4.27.72-.11-.08-.16-.36-.21-.67-7.19,5.22-14.36,9.41-16.82,11.25-1.24,1.13-1.24,3.23,0,4.36,2.98,1.7,5.68,3.22,8.11,4.63.52-.96,1.95-1.46,3.31-1.75.53,1.16.01,2.21-.84,3.19,12.39,7.3,16.27,11.04,10.49,16.93.13.19.25.4.35.55.78-.42,1.3.5,1.51,1.48.22-.63.43.13.36.73.07-.09.1-.34.22-.29.09.29-.15.68-.33.73.05-.7-.04.17-.19,0-.09-.28.07-.26.08-.73-.07.11-.16.16-.27.14.08.48-.17.65-.06,0-.07.25-.22.24-.31.43-.42-.74-1.19-.03-1.46-1.05-.17.1-.73.41-.59-.32-.3.75-.5-.66-.84.11-.05-.05-.07-.17-.06-.33-.4.34-.84.7-1.3,1.06.67.35,1.31.66,1.89.8-.07,1.16-1.94-.1-2.79,1.38-.58-.59.36-.92.08-1.55-3.91,2.92-9.65,6.42-17.35,10.97-1.24,1.13-1.24,3.23,0,4.36,3.29.91-11.75,28.86-11.77,30.51-1.52,3.64,3.76,6.03,5.48,2.45.52-1.78,2-5.56,3.95-9.71-.24-.18-.37-.37-.35-.58.2.09.36.15.52.22.12-.25.24-.5.36-.75-.73-.47-1.64-.95-2.4-1.16.98-.57,1.85.17,2.57.8,5.54-11.37,14.09-24.06,16.25-6.35,0,0-14.96,33.48-14.96,33.48-1.52,3.64,3.76,6.03,5.48,2.45,4.5-4.15,12.88-45.29,24.26-35.04.44.72.7,1.58.84,2.54.8.54,1.72,1.88,2.3,1.36-.39,1.13-.4.25.07,1.77-.74-.81-1.53-.67-2.32-.29-1.08,13.15-18.04,38.13-16.36,39.23-1.52,3.64,3.76,6.03,5.48,2.45,3.53-4.98,6.67-17.74,11.63-27.02-.71-.36-1.33-.94-1.73-1.28.65-.72,1.35-.1,2.17.48,3.86-6.9,8.8-11.59,15.81-9.09.54-.31,1.09-.69,1.64-1.02-.03.46-.27.99-.63,1.43.63.28,1.28.61,1.94,1.01,5.92.63,11.34-4.99,10.07-10.94-.98-5.3-8.05-8.15-11.92-4.19-1.5,1.4-3.09,5.6-.22,6.24.98.14,1.89-.55,2.03-1.53.4-3.29,4.85-2.33,5.03.43.2,1.97-1.44,3.98-3.44,4.06-.83.04-1.69-.06-2.51-.22-26.04-7.55-.6-16.67,4.66-21.71,1.24-1.13,1.24-3.23,0-4.36-.24-3.62-25.74-10.03-23.95-20.49,6.01,6.14,15.37,12.86,23.98,10.81-.41-.24-.81-.49-1.22-.76.45-1.12,1.66-.44,2.79.09.21-.12.42-.24.63-.38-.34-.18-.59-.48-.81-.82.9-.27,1.03.02,1.34.45,2.73-2.05,4.39-5.5,3.62-9.08-.98-5.3-8.05-8.15-11.92-4.19-1.5,1.4-3.09,5.6-.22,6.24.98.14,1.89-.55,2.03-1.53.4-3.29,4.85-2.33,5.03.43.2,1.97-1.44,3.98-3.44,4.06-.83.04-1.69-.06-2.51-.22-23.15-4.9-.9-18.14,4.66-21.71.28-.25.48-.56.64-.89-.92-.08-1.81-.26-2.67-.55.7-.94,1.89-.5,2.93-.4.1-.92-.19-1.88-.9-2.52.89-1.7-15.1-8.67-23.95-12.75,7.56-20.05,50.16,10.29,25.69,19.95-3.89-.06-3.89,6.06,0,6,1.98.22,7.08-1.02,7,2.33-.06,3.89,6.06,3.89,6,0-.09-3.35,5.03-2.12,7-2.33,3.89.06,3.89-6.06,0-6-8.35-1.98-8.49-9.08-4.95-15.32-1.34.74-1.56-3.11-3.11-1.79.05-.66.38-.12.45-.7.1-.45-.02-.57-.1-.74-.1.02-.13.32-.18.53-.22-.25-.25-.79-.52-.96.22-.41.57.47.79-.48.91,1.08,2.09.61,2.95,1.84.12.07.17-.13.21-.35.13.36.73-.08.69.58.1-.12.2-.17.3-.19.41-.56.85-1.09,1.31-1.62-.7-.48-1.33-1.3-1.84-2.12,1.09-1.06,2.52-.69,3.98,0,3.42-3,7.63-4.87,11.58-4.22,4.39-.79,18.79.34,12.68,7.3-12.61,1.81-22.06,10.63-22.5,11.05-1.24,1.12-1.24,3.23,0,4.36,6.39,4.05,21.84,13.28,11.87,19.01.26.34.6.69.87,1.03-.69.02-1.44-.17-1.92-.48-1.94.92-4.62,1.73-8.2,2.39-2.18.18-4.14-1.91-3.92-4.07.19-2.78,4.62-3.71,5.03-.43.11.83.8,1.49,1.66,1.55,3.29-.15,1.75-4.81.14-6.26-3.88-3.96-10.94-1.1-11.92,4.19-1.06,5.07,2.72,10.14,7.76,10.85,1.42.23,2.97.08,4.38-.15,7.02-1.47,13.17-5.76,18.2-10.98,1.82,10.42-23.77,16.91-23.95,20.48-1.24,1.12-1.24,3.23,0,4.36,7.54,5.33,30.03,16.2,2.62,21.95-2.18.18-4.14-1.91-3.92-4.07.19-2.78,4.62-3.71,5.03-.43.11.83.8,1.49,1.66,1.55,3.29-.15,1.75-4.81.14-6.26-3.88-3.96-10.94-1.1-11.92,4.19-1.06,5.07,2.72,10.14,7.76,10.85,1.42.23,2.97.08,4.38-.15,16.63-10.76,22.71,28.19,28.75,35.74,1.72,3.58,7,1.19,5.48-2.45,1.88-1.47-21.32-34.8-15.47-44.61,5.41-4.94,10.17,1.91,14.16,10.85.94.49,1.84,1,2.63,1.19-.05.81-.98.44-1.83.65,3.98,9.43,7.13,20.37,9.3,22.34,1.72,3.58,7,1.19,5.48-2.45,0,0-14.96-33.48-14.96-33.48,2.29-18.98,11.95-3.07,17.38,8.73.86.08,1.62-.07,1.91-1.46.42,1.79-.83,1.03-.67,2.43-.27.02-.53.01-.79,0,1.52,3.39,2.65,6.33,3.08,7.83,1.72,3.58,7,1.19,5.48-2.45ZM64.86,121.74c.12-1.5.94-.79,1.36-.61-.09.98-.95.3-1.36.61ZM78.74,98.53c-13.29,9.97-27.04,9.94-40.28,0,7.94-9.16,32.32-9.15,40.28,0ZM78.74,57.06c-13.29,9.97-27.04,9.94-40.28,0,7.94-9.16,32.32-9.15,40.28,0ZM150.98,127.92c-.75.26-1.16-.22-1.74-.33,1.07-.91,2.01-.37,1.74.33ZM122.32,78.81c1.05-.77,1.05-.03,2.06.32-.85.44-1.48.14-2.06-.32ZM115.83,57.05c13.25-9.97,27.06-9.93,40.29,0-7.94,9.16-32.33,9.15-40.29,0ZM115.83,98.53c13.25-9.97,27.06-9.93,40.29,0-7.94,9.16-32.33,9.15-40.29,0Z"/>
      <path class="cls-1" d="M192.39,115.16c.03-.09-.12-.08-.27-.08.21-.13-.18-.44.26-.52-.56-.26.12-.72.39-1.02-.29-9.89-23.77-74.8-31.97-89.6.3,1.5-1.44,2.12-.56,1.08.17-1.3.06-2.9-1.34-3.18.9.85-1.81,1.24-.76,2.16-.38-.32-1.45-.17-.6-.04-.14.16-.48.22-.56.4-.29-.11.24-.4-.4-.46.22-.44.98-2.08.64-2.11.22-.1-.11-.46.31-.47-.46-.3.09-.63.42-.88C141.23,2.7,97.46-4.85,84.51,3.24c-.24-.8-.09-1.47.03-2.14-1.03-.08-1.44.86-1.64,1.8-.23-.17-.29-.07-.45-.14.13-.42.39-.95.63-1.46-9.87,1.55-31.27,4.48-47.94,20.77C26.97,33.19-3.05,107.66.25,116.78c-.39-.77-.2-1.57.81-2-.3-.16-.17-.2-.14-.38.51.1.5.58.15.47-.12.22.25.09.25.23.07.18-.3-.07-.47.02.37.12.29.08.37.25-1.01-.36-.17.14-.81.26.38.21.41-.07.34-.2.32.05.23-.04.47.06-.23.02-.17.28.02.37-.04.07-.03.17-.34.12.19-.13-.07-.07-.13-.22-.33.02.42.39-.33.32-.06-.09.07-.1.11-.15-.66.47-.23,1.64.73,1.72.16-.37.47-.72.36-1.03.76.22-.13.54.17.87-.2.02-.23.14-.48.13,1.65.7,3.76-.44,4.31-2.21,8.04-24.52,21.2-61.78,29.28-79.26-1.73-.28-1.82-2.1-1.07-.96.53.06.89.3,1.26.55.36-.77.71-1.52,1.05-2.21-.08-.02-.15-.04-.23-.04C55.79,6.07,86.26,6.47,111.92,8.42c43.09,3.81,48.31,25.3,64.97,75.94.94-.22,2.44-1.22,3.08-.15-.8-.2-1,.72-2.16.43.05.15.15.34.26.54-.27-.02-.58-.02-.55.33-.16-.24-.23-.22-.36-.37,3.39,5.42,9.05,40.51,15.24,30.02ZM35.37,33.72s-.12.01-.12-.01c-.6.18-.55.09-1.18.11.55-.2-1.19-.19-.27-.42-.39,0-.51.04-.36-.12-.44-.07-.29.13-.46.18.07-.24,1.14-.84,1.45-1.13.3.07-.15.15.02.31.17-.02.25-.09.22-.2.36.12.17.27.15.36.38,0,.26-.22.45-.31.38.09-.24.19.26.24-.04.12-.51.06-.58.17.35.15.13-.11.59-.04-.4.14-.38.45-.66.64.09.09.37.13.49.22Z"/>
    </g>
  </g>
</svg>